<?xml version="1.0" encoding="UTF-8"?>
<svg width="87px" height="101px" viewBox="0 0 87 101" version="1.1" xmlns="http://www.w3.org/2000/svg" xmlns:xlink="http://www.w3.org/1999/xlink">
    <!-- Generator: Sketch 64 (93537) - https://sketch.com -->
    <title>ed_icon</title>
    <desc>Created with Sketch.</desc>
    <g id="Page-1" stroke="none" stroke-width="1" fill="none" fill-rule="evenodd">
        <g id="ed_icon" transform="translate(0.666667, 0.000000)">
            <path d="M62.5601849,57.4100424 L23.3242773,57.4100424 C19.7917574,57.4100424 16.9291081,60.2848034 16.9291081,63.8052091 C16.9291081,67.3378103 19.7917574,70.2125701 23.3242773,70.2125701 L62.5601849,70.2125701 C66.0927035,70.2125701 68.9675446,67.3378103 68.9675446,63.8052091 C68.9675446,60.2848034 66.0927035,57.4100424 62.5601849,57.4100424 Z M48.6978865,65.0233379 L30.4381718,65.0233379 L30.4381718,62.5870804 L48.6978865,62.5870804 L48.6978865,65.0233379 Z M55.4584797,65.0233379 L51.1585289,65.0233379 L51.1585289,62.5870804 L55.4584797,62.5870804 L55.4584797,65.0233379 Z" id="path226" fill="#FFFFFF" fill-rule="nonzero"></path>
            <path d="M49.5992894,83.0516054 L49.453122,83.0516054 L49.453122,89.1910126 L49.5992894,89.1910126 C51.2925032,89.1910126 52.6689937,87.8145234 52.6689937,86.1213096 C52.6689937,84.4280946 51.2925032,83.0516054 49.5992894,83.0516054 Z" id="path228" fill="#FFFFFF" fill-rule="nonzero"></path>
            <rect id="rect230" fill="#FFFFFF" fill-rule="nonzero" x="44.1664255" y="83.0515782" width="2.85045179" height="6.13940976"></rect>
            <rect id="rect232" fill="#FFFFFF" fill-rule="nonzero" x="38.8675804" y="83.0515782" width="2.86256779" height="6.13940976"></rect>
            <path d="M33.2154673,86.1213096 C33.2154673,87.8145234 34.5919565,89.1910126 36.2851678,89.1910126 L36.4313389,89.1910126 L36.4313389,83.0516054 L36.2851678,83.0516054 C34.5919565,83.0516054 33.2154673,84.4280946 33.2154673,86.1213096 Z" id="path234" fill="#FFFFFF" fill-rule="nonzero"></path>
            <path d="M75.642858,49.1876826 C70.429236,37.4206062 59.4173926,29.4783981 46.7976115,28.1262876 L46.7976115,17.6138426 L46.7976115,16.8220292 C49.5870951,15.4090373 51.5117599,12.5098878 51.5117599,9.17223603 C51.5117599,4.44589227 47.6746271,0.608761694 42.9482894,0.608761694 C38.2220269,0.608761694 34.3726961,4.44589227 34.3726961,9.17223603 C34.3726961,12.5098878 36.2973646,15.4090373 39.0868457,16.8220292 L39.0868457,17.6138426 L39.0868457,28.1262876 C26.4670622,29.4783981 15.4673465,37.4206062 10.2659952,49.1754884 C4.57728441,50.4788932 0.326025607,55.570655 0.326025607,61.6491008 L0.326025607,65.6567871 C0.326025607,71.4185058 4.15097029,76.3032064 9.40109254,77.8989498 C9.68124048,77.9842186 9.96145992,78.0695058 10.241598,78.1303983 C15.9790132,91.0790958 28.7327649,99.4232382 42.9361715,99.4232382 C57.139503,99.4232382 69.8933312,91.0790958 75.6306625,78.1303983 C75.923001,78.0695132 76.2032205,77.9842272 76.4833684,77.8867555 C81.7334931,76.3032064 85.5706234,71.4306988 85.5706234,65.6567871 L85.5706234,61.6491008 C85.5706234,55.5828481 81.3192956,50.503283 75.642858,49.1876826 Z M41.5231044,17.6138426 C41.985994,17.6991114 42.4610815,17.7478219 42.9482894,17.7478219 C43.4233806,17.7478219 43.8984632,17.6991286 44.3613565,17.6138426 L44.3613565,27.9435373 C43.8862677,27.9311976 43.4233806,27.894844 42.9482894,27.894844 C42.4732733,27.894844 41.9981895,27.9313455 41.5231044,27.9435373 L41.5231044,17.6138426 Z M49.5992894,91.6272664 L36.2851678,91.6272664 C33.2520415,91.6272664 30.7792085,89.166629 30.7792085,86.1213096 C30.7792085,83.088182 33.2520415,80.6153491 36.2851678,80.6153491 L49.5992894,80.6153491 C52.6324195,80.6153491 55.1052475,83.088182 55.1052475,86.1213096 C55.1052475,89.166629 52.6324195,91.6272664 49.5992894,91.6272664 L49.5992894,91.6272664 Z M83.1343672,65.6567871 C83.1343672,70.3100405 80.0646654,74.2567628 75.8377249,75.5723595 C74.8632389,75.8768923 73.8278592,76.03518 72.7559028,76.03518 L13.1285557,76.03518 C12.0565993,76.03518 11.0212208,75.8768923 10.0467299,75.5723595 C5.83198367,74.2567628 2.76228926,70.3100405 2.76228926,65.6567871 L2.76228926,61.6491008 C2.76228926,55.9360816 7.40334468,51.2828985 13.1285569,51.2828985 L72.7559028,51.2828985 C78.4811163,51.2828985 83.1343672,55.9360816 83.1343672,61.6491008 L83.1343672,65.6567871 Z" id="path236" stroke="#FFFFFF" stroke-width="1.21752347"></path>
        </g>
    </g>
</svg>