<?xml version="1.0" encoding="UTF-8"?>
<svg width="82px" height="100px" viewBox="0 0 82 100" version="1.1" xmlns="http://www.w3.org/2000/svg" xmlns:xlink="http://www.w3.org/1999/xlink">
    <!-- Generator: Sketch 64 (93537) - https://sketch.com -->
    <title>rp_icon</title>
    <desc>Created with Sketch.</desc>
    <g id="Page-1" stroke="none" stroke-width="1" fill="none" fill-rule="evenodd">
        <g id="rp_icon" transform="translate(1.000000, 0.000000)">
            <g id="g216" transform="translate(0.037515, 0.132979)" stroke="#FFFFFF">
                <path d="M49.4516192,80.439284 L48.1649577,82.0402634 C47.9719218,82.2784054 47.7532142,82.2651592 47.5601924,82.0402634 L46.2735384,80.439284 C45.1155149,78.983832 42.8767425,78.9706692 41.705924,80.439284 L40.2648644,82.2254266 C40.0718464,82.4768215 39.8531246,82.4635734 39.6601057,82.2386892 L38.2190452,80.4392907 C37.0482286,78.9838378 34.8222587,78.970675 33.6514317,80.4392907 L32.3647786,82.0402682 C32.1717606,82.265166 31.9530492,82.265166 31.7600876,82.0402682 L30.4734299,80.4392966 C29.315411,78.9838408 27.0766396,78.9706779 25.9057402,80.4392966 L22.9335721,84.1439435 L24.9150667,85.8242932 L27.8872518,82.1196482 C28.0801946,81.8814239 28.2989802,81.8814239 28.4919428,82.1196482 L29.7785939,83.7205443 C30.9494933,85.1760001 33.1753908,85.1760001 34.3462074,83.7205443 L35.632868,82.1196482 C35.825887,81.8814239 36.0445974,81.8814239 36.2376333,82.1196482 L37.6786778,83.919038 C38.8494963,85.3744153 41.0754747,85.3744153 42.2462932,83.919038 L43.6873368,82.1196443 C43.8803736,81.881421 44.0990841,81.881421 44.292104,82.1196443 L45.5787636,83.7205414 C46.7495859,85.1759962 48.9883526,85.1759962 50.1463771,83.7205414 L51.4330311,82.1196443 C51.6259908,81.881421 51.8447746,81.881421 52.0377193,82.1196443 L55.0099043,85.8242932 L56.991398,84.1439396 L54.0192318,80.4392898 C52.8483324,78.970675 50.622433,78.9838378 49.4516192,80.4392878 L49.4516192,80.439284 Z" id="path210" stroke-width="1.30509078" fill="#FFFFFF" fill-rule="nonzero"></path>
                <path d="M74.1682302,37.8091313 L70.2696991,37.8091313 L70.2696991,30.426317 C70.2696991,26.7348349 67.3360907,23.7182224 63.7463511,23.7182224 L62.7170294,23.7182224 L66.7570686,18.8756456 C67.464803,19.0609028 68.1853285,19.1800125 68.9058399,19.1800125 C71.4533915,19.1800125 74.0009516,18.0818211 75.7894216,15.9384199 C77.3591134,14.0464059 78.118274,11.6383639 77.938113,9.16418373 C77.7580469,6.67675969 76.6385785,4.42748338 74.8115534,2.81334647 C72.9716383,1.18588496 70.6299205,0.405304213 68.2238855,0.590477223 C65.817843,0.775729673 63.6176275,1.92681445 62.0479432,3.8056673 C59.7448613,6.55764587 59.2944799,10.3152695 60.5682581,13.4509976 L53.4402077,21.9982098 L51.9991708,23.7182224 L27.9258003,23.7182224 L26.4847548,21.9982098 L19.3567158,13.4509976 C20.6304902,10.3152695 20.180185,6.55764587 17.8899027,3.8056673 C16.3073482,1.92681445 14.1200105,0.775729673 11.7010903,0.590477223 C9.29505151,0.392061647 6.95332703,1.18588496 5.11341859,2.81334647 C3.2863888,4.42748338 2.16700497,6.67675969 1.9868543,9.16418373 C1.80670176,11.6383639 2.5658642,14.0464059 4.14842624,15.9384199 C5.93689624,18.0818211 8.47157198,19.1800125 11.0191264,19.1800125 C11.73965,19.1800125 12.4602536,19.0609415 13.1678968,18.8756456 L13.7340299,19.5504358 L17.2079435,23.7182224 L16.1786265,23.7182224 C12.5888859,23.7182224 9.65527291,26.7348349 9.65527291,30.426317 L9.65527291,37.8091313 L5.75674652,37.8091313 C2.93896613,37.8091313 0.635879767,40.1775271 0.635879767,43.0751102 L0.635879767,63.5036797 C0.635879767,66.4012725 2.93896613,68.7695812 5.75674652,68.7695812 L9.65527291,68.7695812 L9.65527291,92.0163673 C9.65527291,95.7210143 12.5888859,98.7244591 16.1786265,98.7244591 L63.7463511,98.7244591 C67.3360907,98.7244591 70.2696991,95.7210143 70.2696991,92.0163673 L70.2696991,68.7695812 L74.1682302,68.7695812 C76.9860115,68.7695812 79.2890915,66.4012725 79.2890915,63.5036797 L79.2890915,43.0751102 C79.2890915,40.1775271 76.9860115,37.8091313 74.1682302,37.8091313 L74.1682302,37.8091313 Z M61.9707578,15.8325505 C62.2924119,16.2163004 62.6269597,16.5999689 63.0129403,16.9307429 C63.398919,17.274764 63.8235346,17.5657947 64.2352753,17.8304416 L60.761293,21.9982098 L59.3331215,23.7182224 L55.3830833,23.7182224 L61.9707578,15.8325505 Z M15.6896929,17.8304416 C16.1143104,17.5657947 16.5260436,17.274764 16.9120298,16.9307429 C17.2980104,16.5999689 17.6454321,16.2163004 17.9542179,15.8325505 L24.5418858,23.7182224 L20.6047244,23.7182224 L15.6896929,17.8304416 Z M39.9688849,92.7307982 C27.1023311,92.7307982 17.4009606,88.4174997 17.4009606,82.7149597 C17.4009606,76.9991793 27.1023311,72.6859709 39.9688849,72.6859709 C52.8226409,72.6859709 62.5240095,76.9991793 62.5240095,82.7149597 C62.5240095,88.4174997 52.8226409,92.7307982 39.9688849,92.7307982 Z M76.7157817,63.5036797 C76.7157817,64.9458177 75.5707149,66.1233853 74.1682292,66.1233853 L9.65527291,66.1233853 L5.75674652,66.1233853 C4.35425709,66.1233853 3.20919212,64.9458177 3.20919212,63.5036797 L3.20919212,43.0751102 C3.20919212,41.6328957 4.35425709,40.4553184 5.75674652,40.4553184 L74.1682292,40.4553184 C75.5707149,40.4553184 76.7157817,41.6328957 76.7157817,43.0751102 L76.7157817,63.5036797 Z" id="path214" stroke-width="1.36721478"></path>
            </g>
            <path d="M61.141795,46.32762 L19.698579,46.32762 C15.967324,46.32762 12.943641,49.4501 12.943641,53.273855 C12.943641,57.110869 15.967324,60.233349 19.698579,60.233349 L61.141795,60.233349 C64.873055,60.233349 67.909627,57.110869 67.909627,53.273855 C67.909627,49.4501 64.873055,46.32762 61.141795,46.32762 Z M46.499661,54.596947 L27.212698,54.596947 L27.212698,51.950763 L46.499661,51.950763 L46.499661,54.596947 Z M53.640581,54.596947 L49.098721,54.596947 L49.098721,51.950763 L53.640581,51.950763 L53.640581,54.596947 Z" id="path188" fill="#FFFFFF" fill-rule="nonzero"></path>
        </g>
    </g>
</svg>